ply
format ascii 1.0
comment Created by Blender 2.90.1 - www.blender.org
element vertex 32
property float x
property float y
property float z
property float nx
property float ny
property float nz
property uchar red
property uchar green
property uchar blue
property uchar alpha
element face 8
property list uchar uint vertex_indices
end_header
0.000000 -1.053533 1.414214 -0.614474 -0.494815 0.614474 102 200 255 255
-1.414214 -1.053533 0.000000 -0.614474 -0.494815 0.614474 102 200 255 255
-0.044038 -2.755053 0.000000 -0.614474 -0.494815 0.614474 102 200 255 255
0.000000 -2.755053 0.044038 -0.614474 -0.494815 0.614474 102 200 255 255
0.000000 -1.053533 -1.414214 -0.686484 0.239749 -0.686484 102 200 255 255
-1.414214 -1.053533 0.000000 -0.686484 0.239749 -0.686484 102 200 255 255
-0.027612 2.916790 0.000000 -0.686484 0.239749 -0.686484 102 200 255 255
0.000000 2.916790 -0.027612 -0.686484 0.239749 -0.686484 102 200 255 255
-1.414214 -1.053533 0.000000 -0.614474 -0.494815 -0.614474 102 200 255 255
0.000000 -1.053533 -1.414214 -0.614474 -0.494815 -0.614474 102 200 255 255
0.000000 -2.755053 -0.044038 -0.614474 -0.494815 -0.614474 102 200 255 255
-0.044038 -2.755053 0.000000 -0.614474 -0.494815 -0.614474 102 200 255 255
0.000000 -1.053533 -1.414214 0.614474 -0.494815 -0.614474 102 200 255 255
1.414214 -1.053533 0.000000 0.614474 -0.494815 -0.614474 146 199 255 255
0.044038 -2.755053 0.000000 0.614474 -0.494815 -0.614474 146 199 255 255
0.000000 -2.755053 -0.044038 0.614474 -0.494815 -0.614474 102 200 255 255
-1.414214 -1.053533 0.000000 -0.686484 0.239749 0.686484 102 200 255 255
0.000000 -1.053533 1.414214 -0.686484 0.239749 0.686484 102 200 255 255
0.000000 2.916790 0.027612 -0.686484 0.239749 0.686484 102 200 255 255
-0.027612 2.916790 0.000000 -0.686484 0.239749 0.686484 102 200 255 255
0.000000 -1.053533 1.414214 0.686484 0.239749 0.686484 102 200 255 255
1.414214 -1.053533 0.000000 0.686484 0.239749 0.686484 146 199 255 255
0.027612 2.916790 0.000000 0.686484 0.239749 0.686484 146 199 255 255
0.000000 2.916790 0.027612 0.686484 0.239749 0.686484 102 200 255 255
1.414214 -1.053533 0.000000 0.614474 -0.494815 0.614474 146 199 255 255
0.000000 -1.053533 1.414214 0.614474 -0.494815 0.614474 102 200 255 255
0.000000 -2.755053 0.044038 0.614474 -0.494815 0.614474 102 200 255 255
0.044038 -2.755053 0.000000 0.614474 -0.494815 0.614474 146 199 255 255
1.414214 -1.053533 0.000000 0.686484 0.239749 -0.686484 146 199 255 255
0.000000 -1.053533 -1.414214 0.686484 0.239749 -0.686484 102 200 255 255
0.000000 2.916790 -0.027612 0.686484 0.239749 -0.686484 102 200 255 255
0.027612 2.916790 0.000000 0.686484 0.239749 -0.686484 146 199 255 255
4 0 1 2 3
4 4 5 6 7
4 8 9 10 11
4 12 13 14 15
4 16 17 18 19
4 20 21 22 23
4 24 25 26 27
4 28 29 30 31
