ply
format ascii 1.0
comment Created by Blender 2.75 (sub 0) - www.blender.org, source file: 'ship.blend'
element vertex 279
property float x
property float y
property float z
property float nx
property float ny
property float nz
property uchar red
property uchar green
property uchar blue
element face 72
property list uchar uint vertex_indices
end_header
0.898266 -1.754729 0.059962 0.263046 0.016044 0.964650 167 167 167
3.357339 -0.762034 -0.627101 0.263046 0.016044 0.964650 167 167 167
3.255059 1.454978 -0.636086 0.263046 0.016044 0.964650 167 167 167
0.797119 0.437734 0.051078 0.263046 0.016044 0.964650 167 167 167
1.000000 -1.657296 0.000000 0.789877 -0.100968 0.604896 185 185 185
0.509240 -1.657296 0.733879 0.789877 -0.100968 0.604896 185 185 185
0.168507 -5.861856 0.383954 0.789877 -0.100968 0.604896 185 185 185
0.489611 -6.207518 0.000000 0.789877 -0.100968 0.604896 185 185 185
5.085435 1.926050 -1.044739 0.214479 0.013852 0.976630 167 167 167
5.047573 2.746749 -1.048064 0.214479 0.013852 0.976630 168 168 168
3.255059 1.454978 -0.636086 0.214479 0.013852 0.976630 167 167 167
3.357339 -0.762034 -0.627101 0.214479 0.013852 0.976630 167 167 167
1.000000 -0.151588 0.000000 0.849327 -0.019722 0.527498 185 185 185
0.336475 0.177849 1.136956 0.849327 -0.019722 0.527498 185 185 185
0.509240 -1.657296 0.733879 0.849327 -0.019722 0.527498 185 185 185
1.000000 -1.657296 0.000000 0.849327 -0.019722 0.527498 185 185 185
0.332780 1.794838 0.000000 0.861913 0.292965 0.413857 185 185 185
0.140153 1.341396 0.733879 0.861913 0.292965 0.413857 185 185 185
0.336475 0.177849 1.136956 0.861913 0.292965 0.413857 185 185 185
1.000000 -0.151588 0.000000 0.861913 0.292965 0.413857 185 185 185
1.600865 -1.884643 0.156989 -0.559209 -0.072658 0.825837 107 108 109
1.500509 1.169399 0.357730 -0.559209 -0.072658 0.825837 106 107 108
0.908334 1.140445 -0.045804 -0.559209 -0.072658 0.825837 107 108 109
1.261993 -1.901212 -0.073933 -0.559209 -0.072658 0.825837 106 107 108
1.903728 1.185599 -0.235145 0.563831 -0.027539 -0.825431 107 108 109
1.831608 -1.875373 -0.182284 0.563831 -0.027539 -0.825431 129 130 131
1.492735 -1.891942 -0.413207 0.563831 -0.027539 -0.825431 111 112 113
1.311553 1.156644 -0.638679 0.563831 -0.027539 -0.825431 106 107 108
1.261993 -1.901212 -0.073933 -0.822347 -0.090420 -0.561755 118 119 120
0.908334 1.140445 -0.045804 -0.822347 -0.090420 -0.561755 107 108 109
1.311553 1.156644 -0.638679 -0.822347 -0.090420 -0.561755 106 107 108
1.492735 -1.891942 -0.413207 -0.822347 -0.090420 -0.561755 111 112 113
1.831608 -1.875373 -0.182284 0.826970 -0.009776 0.562161 106 107 108
1.903728 1.185599 -0.235145 0.826970 -0.009776 0.562161 107 108 109
1.500509 1.169399 0.357730 0.826970 -0.009776 0.562161 106 107 108
1.600865 -1.884643 0.156989 0.826970 -0.009776 0.562161 107 108 109
0.544079 -1.770796 0.634661 0.253757 0.015626 -0.967142 182 182 182
0.442932 0.421667 0.643546 0.253757 0.015626 -0.967142 182 182 182
3.255059 1.454978 1.398082 0.253757 0.015626 -0.967142 182 182 182
3.357339 -0.762034 1.389097 0.253757 0.015626 -0.967142 182 182 182
3.255059 1.454978 1.398082 0.214479 0.013852 -0.976630 182 182 182
5.047573 2.746749 1.810061 0.214479 0.013852 -0.976630 182 182 182
5.085435 1.926050 1.806735 0.214479 0.013852 -0.976630 182 182 182
3.357339 -0.762034 1.389097 0.214479 0.013852 -0.976630 182 182 182
1.600865 -1.884643 0.605011 -0.559209 -0.072658 -0.825837 106 107 108
1.261993 -1.901212 0.835934 -0.559209 -0.072658 -0.825837 106 107 108
0.908334 1.140445 0.807804 -0.559209 -0.072658 -0.825837 106 107 108
1.500509 1.169399 0.404270 -0.559209 -0.072658 -0.825837 106 107 108
1.903728 1.185599 0.997145 0.563831 -0.027539 0.825431 106 107 108
1.311553 1.156644 1.400679 0.563831 -0.027539 0.825431 106 107 108
1.492735 -1.891942 1.175207 0.563831 -0.027539 0.825431 106 107 108
1.831608 -1.875373 0.944284 0.563831 -0.027539 0.825431 106 107 108
1.261993 -1.901212 0.835934 -0.822347 -0.090420 0.561755 107 108 107
1.492735 -1.891942 1.175207 -0.822347 -0.090420 0.561755 106 107 108
1.311553 1.156644 1.400679 -0.822347 -0.090420 0.561755 106 107 108
0.908334 1.140445 0.807804 -0.822347 -0.090420 0.561755 106 107 108
1.831608 -1.875373 0.944284 0.826970 -0.009776 -0.562161 106 107 108
1.600865 -1.884643 0.605011 0.826970 -0.009776 -0.562161 106 107 108
1.500509 1.169399 0.404270 0.826970 -0.009776 -0.562161 109 110 106
1.903728 1.185599 0.997145 0.826970 -0.009776 -0.562161 106 107 108
0.797119 0.437734 0.051080 -0.367904 0.928060 0.057887 185 84 52
3.255059 1.454978 -0.636084 -0.367904 0.928060 0.057887 185 91 61
3.229871 1.453277 -0.768910 -0.367904 0.928060 0.057887 185 101 74
0.771930 0.436034 -0.081747 -0.367904 0.928060 0.057887 185 82 49
3.255059 1.454978 -0.636084 -0.567109 0.817902 0.097073 185 91 61
5.047573 2.746749 -1.048062 -0.567109 0.817902 0.097073 185 86 55
5.022385 2.745048 -1.180889 -0.567109 0.817902 0.097073 185 119 98
3.229871 1.453277 -0.768910 -0.567109 0.817902 0.097073 185 101 74
0.442932 0.421667 0.643548 -0.332374 0.941769 -0.050975 185 99 71
0.417743 0.419967 0.776374 -0.332374 0.941769 -0.050975 185 83 51
3.229871 1.453277 1.530911 -0.332374 0.941769 -0.050975 185 86 54
3.255059 1.454978 1.398084 -0.332374 0.941769 -0.050975 185 82 49
3.255059 1.454978 1.398084 -0.567109 0.817902 -0.097073 185 82 49
3.229871 1.453277 1.530911 -0.567109 0.817902 -0.097073 185 86 54
5.022385 2.745048 1.942889 -0.567109 0.817902 -0.097073 185 89 58
5.047573 2.746749 1.810063 -0.567109 0.817902 -0.097073 185 92 61
0.168507 -5.861855 -0.383954 0.296314 -0.490554 -0.819484 159 87 77
0.489611 -6.207518 0.000000 0.296314 -0.490554 -0.819484 159 87 77
0.000000 -6.605047 0.000000 0.296314 -0.490554 -0.819484 159 87 77
0.000000 -5.861855 -0.383954 0.296314 -0.490554 -0.819484 159 87 77
0.489611 -6.207518 0.000000 0.402838 -0.490544 0.772715 159 87 77
0.168506 -5.861856 0.383954 0.402838 -0.490544 0.772715 159 87 77
0.000000 -5.861855 0.474685 0.402838 -0.490544 0.772715 159 87 77
0.000000 -6.605047 0.000000 0.402838 -0.490544 0.772715 159 87 77
0.336476 0.177849 1.136953 0.242744 -0.182628 0.952745 125 198 228
0.000000 0.241957 1.227684 0.242744 -0.182628 0.952745 125 198 228
0.000000 -1.898850 0.824607 0.242744 -0.182628 0.952745 125 198 228
0.509242 -1.657296 0.733876 0.242744 -0.182628 0.952745 125 198 228
0.140153 1.341396 0.733881 0.474532 0.676314 0.563399 172 80 62
0.332780 1.794838 0.000002 0.474532 0.676314 0.563399 172 80 62
0.000000 2.051086 0.000002 0.474532 0.676314 0.563399 172 80 62
0.000000 1.341396 0.824612 0.474532 0.676314 0.563399 172 80 62
0.332780 1.794838 0.000002 0.156909 0.289593 -0.944201 172 80 62
0.140153 0.444950 -0.469320 0.156909 0.289593 -0.944201 172 80 62
0.000000 0.444950 -0.469320 0.156909 0.289593 -0.944201 172 80 62
0.000000 2.051086 0.000002 0.156909 0.289593 -0.944201 172 80 62
1.500509 1.169399 0.357729 -0.046084 0.998929 -0.004048 54 55 55
1.903728 1.185599 -0.235146 -0.046084 0.998929 -0.004048 54 55 55
1.311553 1.156644 -0.638680 -0.046084 0.998929 -0.004048 54 55 55
0.908334 1.140445 -0.045805 -0.046084 0.998929 -0.004048 54 55 55
1.831608 -1.875373 -0.182285 0.046085 -0.998929 0.004048 54 55 55
1.600865 -1.884643 0.156988 0.046085 -0.998929 0.004048 54 55 55
1.261993 -1.901212 -0.073935 0.046085 -0.998929 0.004048 54 55 55
1.492735 -1.891942 -0.413208 0.046085 -0.998929 0.004048 54 55 55
1.500509 1.169399 0.404269 -0.046084 0.998929 0.004048 54 55 55
0.908334 1.140445 0.807803 -0.046084 0.998929 0.004048 54 55 55
1.311553 1.156644 1.400678 -0.046084 0.998929 0.004048 54 55 55
1.903728 1.185599 0.997145 -0.046084 0.998929 0.004048 54 55 55
1.831608 -1.875373 0.944283 0.046085 -0.998929 -0.004048 54 55 55
1.492735 -1.891942 1.175206 0.046085 -0.998929 -0.004048 54 55 55
1.261993 -1.901212 0.835933 0.046085 -0.998929 -0.004048 54 55 55
1.600865 -1.884643 0.605010 0.046085 -0.998929 -0.004048 54 55 55
0.509240 -1.657296 -0.469318 0.706927 -0.075583 -0.703236 154 154 154
1.000000 -1.657296 0.000004 0.706927 -0.075583 -0.703236 154 154 154
0.489611 -6.207518 0.000004 0.706927 -0.075583 -0.703236 154 154 154
0.168507 -5.861855 -0.383950 0.706927 -0.075583 -0.703236 154 154 154
0.509240 -1.657296 -0.469318 0.000000 -0.020300 -0.999794 154 154 154
0.168507 -5.861855 -0.383950 0.000000 -0.020300 -0.999794 154 154 154
0.000000 -5.861855 -0.383950 0.000000 -0.020300 -0.999794 154 154 154
0.000000 -1.657296 -0.469318 0.000000 -0.020300 -0.999794 154 154 154
0.509240 -0.151588 -0.469318 0.000000 0.000000 -1.000000 154 154 154
0.509240 -1.657296 -0.469318 0.000000 0.000000 -1.000000 154 154 154
0.000000 -1.657296 -0.469318 0.000000 0.000000 -1.000000 154 154 154
0.000000 -0.151588 -0.469318 0.000000 0.000000 -1.000000 154 154 154
0.509240 -0.151588 -0.469318 0.691146 -0.000000 -0.722715 154 154 154
1.000000 -0.151588 0.000004 0.691146 -0.000000 -0.722715 154 154 154
1.000000 -1.657296 0.000004 0.691146 -0.000000 -0.722715 154 154 154
0.509240 -1.657296 -0.469318 0.691146 -0.000000 -0.722715 154 154 154
0.140153 0.444950 -0.469318 0.587931 0.239594 -0.772613 154 154 154
0.332780 1.794838 0.000004 0.587931 0.239594 -0.772613 154 154 154
1.000000 -0.151588 0.000004 0.587931 0.239594 -0.772613 154 154 154
0.509240 -0.151588 -0.469318 0.587931 0.239594 -0.772613 154 154 154
0.140153 0.444950 -0.469318 0.000000 0.000000 -1.000000 154 154 154
0.000000 0.444950 -0.469318 0.000000 0.000000 -1.000000 154 154 154
0.509240 -1.657296 0.733876 0.288517 -0.093685 0.952880 198 198 198
0.000000 -1.898850 0.824607 0.288517 -0.093685 0.952880 198 198 198
0.000000 -5.861855 0.474683 0.288517 -0.093685 0.952880 198 198 198
0.168507 -5.861856 0.383951 0.288517 -0.093685 0.952880 198 198 198
0.140153 1.341396 0.733876 0.374206 0.339835 0.862834 198 198 198
0.000000 1.341396 0.824607 0.374206 0.339835 0.862834 198 198 198
0.000000 0.241957 1.227684 0.374206 0.339835 0.862834 198 198 198
0.336475 0.177849 1.136953 0.374206 0.339835 0.862834 198 198 198
-0.898266 -1.754729 0.059962 -0.263046 0.016044 0.964650 167 167 167
-0.797119 0.437734 0.051078 -0.263046 0.016044 0.964650 167 167 167
-3.255059 1.454978 -0.636086 -0.263046 0.016044 0.964650 167 167 167
-3.357339 -0.762034 -0.627101 -0.263046 0.016044 0.964650 167 167 167
-1.000000 -1.657296 0.000000 -0.789877 -0.100968 0.604896 185 185 185
-0.489611 -6.207518 0.000000 -0.789877 -0.100968 0.604896 185 185 185
-0.168507 -5.861856 0.383954 -0.789877 -0.100968 0.604896 185 185 185
-0.509240 -1.657296 0.733879 -0.789877 -0.100968 0.604896 185 185 185
-3.255059 1.454978 -0.636086 -0.214479 0.013852 0.976630 167 167 167
-5.047573 2.746749 -1.048064 -0.214479 0.013852 0.976630 168 168 168
-5.085435 1.926050 -1.044739 -0.214479 0.013852 0.976630 167 167 167
-3.357339 -0.762034 -0.627101 -0.214479 0.013852 0.976630 167 167 167
-1.000000 -0.151588 0.000000 -0.849327 -0.019722 0.527498 185 185 185
-1.000000 -1.657296 0.000000 -0.849327 -0.019722 0.527498 185 185 185
-0.509240 -1.657296 0.733879 -0.849327 -0.019722 0.527498 185 185 185
-0.336475 0.177849 1.136956 -0.849327 -0.019722 0.527498 185 185 185
-0.332780 1.794838 0.000000 -0.861913 0.292965 0.413857 185 185 185
-1.000000 -0.151588 0.000000 -0.861913 0.292965 0.413857 185 185 185
-0.336475 0.177849 1.136956 -0.861913 0.292965 0.413857 185 185 185
-0.140153 1.341396 0.733879 -0.861913 0.292965 0.413857 185 185 185
-1.600865 -1.884643 0.156989 0.559209 -0.072658 0.825837 107 108 109
-1.261993 -1.901212 -0.073933 0.559209 -0.072658 0.825837 106 107 108
-0.908334 1.140445 -0.045804 0.559209 -0.072658 0.825837 107 108 109
-1.500509 1.169399 0.357730 0.559209 -0.072658 0.825837 106 107 108
-1.903728 1.185599 -0.235145 -0.563831 -0.027539 -0.825431 107 108 109
-1.311553 1.156644 -0.638679 -0.563831 -0.027539 -0.825431 106 107 108
-1.492735 -1.891942 -0.413207 -0.563831 -0.027539 -0.825431 111 112 113
-1.831608 -1.875373 -0.182284 -0.563831 -0.027539 -0.825431 129 130 131
-1.261993 -1.901212 -0.073933 0.822347 -0.090420 -0.561755 118 119 120
-1.492735 -1.891942 -0.413207 0.822347 -0.090420 -0.561755 111 112 113
-1.311553 1.156644 -0.638679 0.822347 -0.090420 -0.561755 106 107 108
-0.908334 1.140445 -0.045804 0.822347 -0.090420 -0.561755 107 108 109
-1.831608 -1.875373 -0.182284 -0.826970 -0.009776 0.562161 106 107 108
-1.600865 -1.884643 0.156989 -0.826970 -0.009776 0.562161 107 108 109
-1.500509 1.169399 0.357730 -0.826970 -0.009776 0.562161 106 107 108
-1.903728 1.185599 -0.235145 -0.826970 -0.009776 0.562161 107 108 109
-0.544079 -1.770796 0.634661 -0.253757 0.015626 -0.967142 182 182 182
-3.357339 -0.762034 1.389097 -0.253757 0.015626 -0.967142 182 182 182
-3.255059 1.454978 1.398082 -0.253757 0.015626 -0.967142 182 182 182
-0.442932 0.421667 0.643546 -0.253757 0.015626 -0.967142 182 182 182
-3.255059 1.454978 1.398082 -0.214479 0.013852 -0.976630 182 182 182
-3.357339 -0.762034 1.389097 -0.214479 0.013852 -0.976630 182 182 182
-5.085435 1.926050 1.806735 -0.214479 0.013852 -0.976630 182 182 182
-5.047573 2.746749 1.810061 -0.214479 0.013852 -0.976630 182 182 182
-1.600865 -1.884643 0.605011 0.559209 -0.072658 -0.825837 106 107 108
-1.500509 1.169399 0.404270 0.559209 -0.072658 -0.825837 106 107 108
-0.908334 1.140445 0.807804 0.559209 -0.072658 -0.825837 106 107 108
-1.261993 -1.901212 0.835934 0.559209 -0.072658 -0.825837 106 107 108
-1.903728 1.185599 0.997145 -0.563831 -0.027539 0.825431 106 107 108
-1.831608 -1.875373 0.944284 -0.563831 -0.027539 0.825431 106 107 108
-1.492735 -1.891942 1.175207 -0.563831 -0.027539 0.825431 106 107 108
-1.311553 1.156644 1.400679 -0.563831 -0.027539 0.825431 106 107 108
-1.261993 -1.901212 0.835934 0.822347 -0.090420 0.561755 107 108 107
-0.908334 1.140445 0.807804 0.822347 -0.090420 0.561755 106 107 108
-1.311553 1.156644 1.400679 0.822347 -0.090420 0.561755 106 107 108
-1.492735 -1.891942 1.175207 0.822347 -0.090420 0.561755 106 107 108
-1.831608 -1.875373 0.944284 -0.826970 -0.009776 -0.562161 106 107 108
-1.903728 1.185599 0.997145 -0.826970 -0.009776 -0.562161 106 107 108
-1.500509 1.169399 0.404270 -0.826970 -0.009776 -0.562161 109 110 106
-1.600865 -1.884643 0.605011 -0.826970 -0.009776 -0.562161 106 107 108
-0.797119 0.437734 0.051080 0.367904 0.928060 0.057887 185 84 52
-0.771930 0.436034 -0.081747 0.367904 0.928060 0.057887 185 82 49
-3.229871 1.453277 -0.768910 0.367904 0.928060 0.057887 185 101 74
-3.255059 1.454978 -0.636084 0.367904 0.928060 0.057887 185 91 61
-3.255059 1.454978 -0.636084 0.567109 0.817902 0.097073 185 91 61
-3.229871 1.453277 -0.768910 0.567109 0.817902 0.097073 185 101 74
-5.022385 2.745048 -1.180889 0.567109 0.817902 0.097073 185 119 98
-5.047573 2.746749 -1.048062 0.567109 0.817902 0.097073 185 86 55
-0.442932 0.421667 0.643548 0.332374 0.941769 -0.050975 185 99 71
-3.255059 1.454978 1.398084 0.332374 0.941769 -0.050975 185 82 49
-3.229871 1.453277 1.530911 0.332374 0.941769 -0.050975 185 86 54
-0.417743 0.419967 0.776374 0.332374 0.941769 -0.050975 185 83 51
-3.255059 1.454978 1.398084 0.567109 0.817902 -0.097073 185 82 49
-5.047573 2.746749 1.810063 0.567109 0.817902 -0.097073 185 92 61
-5.022385 2.745048 1.942889 0.567109 0.817902 -0.097073 185 89 58
-3.229871 1.453277 1.530911 0.567109 0.817902 -0.097073 185 86 54
-0.168507 -5.861855 -0.383954 -0.296314 -0.490554 -0.819484 159 87 77
0.000000 -5.861855 -0.383954 -0.296314 -0.490554 -0.819484 159 87 77
0.000000 -6.605047 0.000000 -0.296314 -0.490554 -0.819484 159 87 77
-0.489611 -6.207518 0.000000 -0.296314 -0.490554 -0.819484 159 87 77
-0.489611 -6.207518 0.000000 -0.402838 -0.490544 0.772715 159 87 77
0.000000 -6.605047 0.000000 -0.402838 -0.490544 0.772715 159 87 77
0.000000 -5.861855 0.474685 -0.402838 -0.490544 0.772715 159 87 77
-0.168506 -5.861856 0.383954 -0.402838 -0.490544 0.772715 159 87 77
-0.336476 0.177849 1.136953 -0.242744 -0.182628 0.952745 125 198 228
-0.509242 -1.657296 0.733876 -0.242744 -0.182628 0.952745 125 198 228
0.000000 -1.898850 0.824607 -0.242744 -0.182628 0.952745 125 198 228
0.000000 0.241957 1.227684 -0.242744 -0.182628 0.952745 125 198 228
-0.140153 1.341396 0.733881 -0.474532 0.676314 0.563399 172 80 62
0.000000 1.341396 0.824612 -0.474532 0.676314 0.563399 172 80 62
0.000000 2.051086 0.000002 -0.474532 0.676314 0.563399 172 80 62
-0.332780 1.794838 0.000002 -0.474532 0.676314 0.563399 172 80 62
-0.332780 1.794838 0.000002 -0.156909 0.289593 -0.944201 172 80 62
0.000000 2.051086 0.000002 -0.156909 0.289593 -0.944201 172 80 62
0.000000 0.444950 -0.469320 -0.156909 0.289593 -0.944201 172 80 62
-0.140153 0.444950 -0.469320 -0.156909 0.289593 -0.944201 172 80 62
-1.500509 1.169399 0.357729 0.046084 0.998929 -0.004048 54 55 55
-0.908334 1.140445 -0.045805 0.046084 0.998929 -0.004048 54 55 55
-1.311553 1.156644 -0.638680 0.046084 0.998929 -0.004048 54 55 55
-1.903728 1.185599 -0.235146 0.046084 0.998929 -0.004048 54 55 55
-1.831608 -1.875373 -0.182285 -0.046085 -0.998929 0.004048 54 55 55
-1.492735 -1.891942 -0.413208 -0.046085 -0.998929 0.004048 54 55 55
-1.261993 -1.901212 -0.073935 -0.046085 -0.998929 0.004048 54 55 55
-1.600865 -1.884643 0.156988 -0.046085 -0.998929 0.004048 54 55 55
-1.500509 1.169399 0.404269 0.046084 0.998929 0.004048 54 55 55
-1.903728 1.185599 0.997145 0.046084 0.998929 0.004048 54 55 55
-1.311553 1.156644 1.400678 0.046084 0.998929 0.004048 54 55 55
-0.908334 1.140445 0.807803 0.046084 0.998929 0.004048 54 55 55
-1.831608 -1.875373 0.944283 -0.046085 -0.998929 -0.004048 54 55 55
-1.600865 -1.884643 0.605010 -0.046085 -0.998929 -0.004048 54 55 55
-1.261993 -1.901212 0.835933 -0.046085 -0.998929 -0.004048 54 55 55
-1.492735 -1.891942 1.175206 -0.046085 -0.998929 -0.004048 54 55 55
-0.509240 -1.657296 -0.469318 -0.706927 -0.075583 -0.703236 154 154 154
-0.168507 -5.861855 -0.383950 -0.706927 -0.075583 -0.703236 154 154 154
-0.489611 -6.207518 0.000004 -0.706927 -0.075583 -0.703236 154 154 154
-1.000000 -1.657296 0.000004 -0.706927 -0.075583 -0.703236 154 154 154
-0.509240 -1.657296 -0.469318 0.000000 -0.020300 -0.999794 154 154 154
-0.168507 -5.861855 -0.383950 0.000000 -0.020300 -0.999794 154 154 154
-0.509240 -0.151588 -0.469318 0.000000 0.000000 -1.000000 154 154 154
-0.509240 -1.657296 -0.469318 0.000000 0.000000 -1.000000 154 154 154
-0.509240 -0.151588 -0.469318 -0.691146 -0.000000 -0.722715 154 154 154
-0.509240 -1.657296 -0.469318 -0.691146 -0.000000 -0.722715 154 154 154
-1.000000 -1.657296 0.000004 -0.691146 -0.000000 -0.722715 154 154 154
-1.000000 -0.151588 0.000004 -0.691146 -0.000000 -0.722715 154 154 154
-0.140153 0.444950 -0.469318 -0.587931 0.239594 -0.772613 154 154 154
-0.509240 -0.151588 -0.469318 -0.587931 0.239594 -0.772613 154 154 154
-1.000000 -0.151588 0.000004 -0.587931 0.239594 -0.772613 154 154 154
-0.332780 1.794838 0.000004 -0.587931 0.239594 -0.772613 154 154 154
-0.140153 0.444950 -0.469318 0.000000 0.000000 -1.000000 154 154 154
-0.509240 -1.657296 0.733876 -0.288517 -0.093685 0.952880 198 198 198
-0.168507 -5.861856 0.383951 -0.288517 -0.093685 0.952880 198 198 198
0.000000 -5.861855 0.474683 -0.288517 -0.093685 0.952880 198 198 198
0.000000 -1.898850 0.824607 -0.288517 -0.093685 0.952880 198 198 198
-0.140153 1.341396 0.733876 -0.374206 0.339835 0.862834 198 198 198
-0.336475 0.177849 1.136953 -0.374206 0.339835 0.862834 198 198 198
0.000000 0.241957 1.227684 -0.374206 0.339835 0.862834 198 198 198
0.000000 1.341396 0.824607 -0.374206 0.339835 0.862834 198 198 198
4 0 1 2 3
4 4 5 6 7
4 8 9 10 11
4 12 13 14 15
4 16 17 18 19
4 20 21 22 23
4 24 25 26 27
4 28 29 30 31
4 32 33 34 35
4 36 37 38 39
4 40 41 42 43
4 44 45 46 47
4 48 49 50 51
4 52 53 54 55
4 56 57 58 59
4 60 61 62 63
4 64 65 66 67
4 68 69 70 71
4 72 73 74 75
4 76 77 78 79
4 80 81 82 83
4 84 85 86 87
4 88 89 90 91
4 92 93 94 95
4 96 97 98 99
4 100 101 102 103
4 104 105 106 107
4 108 109 110 111
4 112 113 114 115
4 116 117 118 119
4 120 121 122 123
4 124 125 126 127
4 128 129 130 131
4 132 120 123 133
4 134 135 136 137
4 138 139 140 141
4 142 143 144 145
4 146 147 148 149
4 150 151 152 153
4 154 155 156 157
4 158 159 160 161
4 162 163 164 165
4 166 167 168 169
4 170 171 172 173
4 174 175 176 177
4 178 179 180 181
4 182 183 184 185
4 186 187 188 189
4 190 191 192 193
4 194 195 196 197
4 198 199 200 201
4 202 203 204 205
4 206 207 208 209
4 210 211 212 213
4 214 215 216 217
4 218 219 220 221
4 222 223 224 225
4 226 227 228 229
4 230 231 232 233
4 234 235 236 237
4 238 239 240 241
4 242 243 244 245
4 246 247 248 249
4 250 251 252 253
4 254 255 256 257
4 258 119 118 259
4 260 123 122 261
4 262 263 264 265
4 266 267 268 269
4 270 133 123 260
4 271 272 273 274
4 275 276 277 278
